<?xml version="1.0" encoding="UTF-8" standalone="no"?>
<!-- Created with Inkscape (http://www.inkscape.org/) -->

<svg
   width="297mm"
   height="210mm"
   viewBox="0 0 1122.5197 793.70081"
   version="1.1"
   id="svg1"
   inkscape:version="1.3 (0e150ed6c4, 2023-07-21)"
   sodipodi:docname="logo.svg"
   xmlns:inkscape="http://www.inkscape.org/namespaces/inkscape"
   xmlns:sodipodi="http://sodipodi.sourceforge.net/DTD/sodipodi-0.dtd"
   xmlns="http://www.w3.org/2000/svg"
   xmlns:svg="http://www.w3.org/2000/svg">
  <sodipodi:namedview
     id="namedview1"
     pagecolor="#ffffff"
     bordercolor="#000000"
     borderopacity="0.25"
     inkscape:showpageshadow="2"
     inkscape:pageopacity="0.0"
     inkscape:pagecheckerboard="0"
     inkscape:deskcolor="#d1d1d1"
     inkscape:document-units="mm"
     showgrid="false"
     inkscape:zoom="1.1295593"
     inkscape:cx="514.35989"
     inkscape:cy="341.72619"
     inkscape:window-width="1920"
     inkscape:window-height="1052"
     inkscape:window-x="0"
     inkscape:window-y="0"
     inkscape:window-maximized="1"
     inkscape:current-layer="layer1">
    <inkscape:grid
       id="grid1"
       units="px"
       originx="0"
       originy="0"
       spacingx="1"
       spacingy="1"
       empcolor="#0099e5"
       empopacity="0.30196078"
       color="#0099e5"
       opacity="0.14901961"
       empspacing="5"
       dotted="false"
       gridanglex="30"
       gridanglez="30"
       visible="false" />
  </sodipodi:namedview>
  <defs
     id="defs1">
    <rect
       x="403.56542"
       y="111.24129"
       width="658.13226"
       height="184.64766"
       id="rect3" />
  </defs>
  <g
     inkscape:label="Ebene 1"
     inkscape:groupmode="layer"
     id="layer1">
    <g
       id="g3"
       transform="translate(-186.73217,-32.721827)">
      <path
         sodipodi:type="star"
         style="fill:#002d70;fill-opacity:1;stroke:#009999;stroke-width:3.77953"
         id="path3"
         inkscape:flatsided="true"
         sodipodi:sides="12"
         sodipodi:cx="270"
         sodipodi:cy="90"
         sodipodi:r1="159.99998"
         sodipodi:r2="154.54813"
         sodipodi:arg1="0"
         sodipodi:arg2="0.26179939"
         inkscape:rounded="0.07"
         inkscape:randomized="0"
         d="m 429.99998,90 c 0,5.797546 -18.53716,74.97917 -21.43593,79.99999 -2.89877,5.02082 -53.54324,55.66529 -58.56406,58.56406 -5.02082,2.89877 -74.20244,21.43593 -79.99999,21.43593 -5.79755,0 -74.97917,-18.53716 -79.99999,-21.43593 -5.02082,-2.89877 -55.66529,-53.54324 -58.56406,-58.56406 C 128.53718,164.97917 110.00002,95.797546 110.00002,90 c 0,-5.797546 18.53716,-74.97917 21.43593,-79.999992 2.89877,-5.0208225 53.54324,-55.665286 58.56406,-58.564059 5.02082,-2.898773 74.20244,-21.435934 79.99999,-21.435934 5.79755,0 74.97917,18.537161 79.99999,21.435934 5.02082,2.898773 55.66529,53.5432365 58.56406,58.564059 C 411.46282,15.02083 429.99998,84.202454 429.99998,90 Z"
         transform="translate(129.99999,150)" />
      <path
         sodipodi:type="star"
         style="fill:#ffffff;fill-opacity:1;stroke:#009999;stroke-width:3.77953"
         id="path1"
         inkscape:flatsided="false"
         sodipodi:sides="12"
         sodipodi:cx="399.99997"
         sodipodi:cy="240.00002"
         sodipodi:r1="109.2"
         sodipodi:r2="140"
         sodipodi:arg1="1.5707963"
         sodipodi:arg2="1.8325957"
         inkscape:rounded="0.07"
         inkscape:randomized="0"
         d="m 399.99997,349.20001 c -3.12304,0 -33.21803,26.83792 -36.23466,26.02962 -3.01663,-0.8083 -15.6607,-39.09812 -18.36534,-40.65964 -2.70463,-1.56152 -42.18662,6.6333 -44.39495,4.42498 -2.20832,-2.20833 5.9865,-41.69032 4.42498,-44.39495 -1.56152,-2.70464 -39.85134,-15.34871 -40.65965,-18.36534 -0.8083,-3.01663 26.02962,-33.11162 26.02962,-36.23466 0,-3.12305 -26.83792,-33.21804 -26.02962,-36.23467 0.80831,-3.01663 39.09812,-15.66069 40.65965,-18.36533 1.56152,-2.70464 -6.63331,-42.18663 -4.42498,-44.39495 2.20832,-2.20833 41.69031,5.9865 44.39495,4.42498 2.70463,-1.56153 15.3487,-39.85135 18.36533,-40.65965 3.01663,-0.8083 33.11162,26.02962 36.23467,26.02962 3.12304,0 33.21803,-26.83792 36.23466,-26.02962 3.01663,0.8083 15.6607,39.09812 18.36534,40.65964 2.70463,1.56152 42.18662,-6.6333 44.39495,-4.42498 2.20832,2.20833 -5.9865,41.69032 -4.42498,44.39495 1.56152,2.70464 39.85134,15.34871 40.65964,18.36534 0.80831,3.01663 -26.02961,33.11162 -26.02961,36.23466 0,3.12305 26.83792,33.21804 26.02962,36.23467 -0.80831,3.01663 -39.09813,15.66069 -40.65965,18.36533 -1.56152,2.70464 6.63331,42.18663 4.42498,44.39495 -2.20833,2.20833 -41.69031,-5.9865 -44.39495,-4.42497 -2.70464,1.56152 -15.3487,39.85134 -18.36533,40.65964 -3.01663,0.8083 -33.11162,-26.02962 -36.23467,-26.02962 z" />
      <path
         sodipodi:type="star"
         style="fill:#005ab4;fill-opacity:1;stroke:#002d70;stroke-width:3.77953;stroke-opacity:1"
         id="path2"
         inkscape:flatsided="true"
         sodipodi:sides="12"
         sodipodi:cx="740"
         sodipodi:cy="130"
         sodipodi:r1="110.02163"
         sodipodi:r2="106.27273"
         sodipodi:arg1="1.5906195"
         sodipodi:arg2="1.8524189"
         inkscape:rounded="0.07"
         inkscape:randomized="0"
         d="m 737.81917,240.00001 c -3.98582,-0.079 -51.29553,-13.76628 -54.70784,-15.82762 -3.4123,-2.06134 -37.54008,-37.56972 -39.46455,-41.06104 -1.92448,-3.49133 -13.72581,-51.30637 -13.64679,-55.29218 0.079,-3.98582 13.76628,-51.29553 15.82762,-54.707835 2.06134,-3.412305 37.56972,-37.540086 41.06104,-39.464558 3.49133,-1.924472 51.30637,-13.725812 55.29218,-13.64679 3.98582,0.07902 51.29553,13.766283 54.70784,15.827625 3.4123,2.061342 37.54008,37.569713 39.46455,41.06104 1.92448,3.491327 13.72581,51.306368 13.64679,55.292178 -0.079,3.98582 -13.76628,51.29553 -15.82762,54.70784 -2.06134,3.4123 -37.56972,37.54008 -41.06104,39.46455 -3.49133,1.92448 -51.30637,13.72581 -55.29218,13.64679 z"
         transform="matrix(0.85830973,0,0,0.85830973,-235.14922,128.41973)" />
    </g>
    <text
       xml:space="preserve"
       id="text3"
       style="font-weight:600;font-size:85.3333px;font-family:Faustina;-inkscape-font-specification:'Faustina Semi-Bold';letter-spacing:0px;white-space:pre;shape-inside:url(#rect3);fill:#002d70;fill-opacity:1;stroke:#002d70;stroke-width:3.77953;stroke-opacity:1"
       transform="translate(24.789456,44.457531)"><tspan
         x="403.56641"
         y="192.60196"
         id="tspan2"><tspan
           style="font-weight:normal;font-family:Montaga;-inkscape-font-specification:Montaga;stroke:none"
           id="tspan1">CORUNDUM</tspan></tspan></text>
    <text
       xml:space="preserve"
       style="font-style:normal;font-variant:normal;font-weight:normal;font-stretch:normal;font-size:48px;font-family:Montaga;-inkscape-font-specification:Montaga;letter-spacing:0px;fill:#002d70;fill-opacity:1;stroke:none;stroke-width:3.77953;stroke-opacity:1"
       x="431.42786"
       y="320.41922"
       id="text4"><tspan
         sodipodi:role="line"
         id="tspan4"
         x="431.42786"
         y="320.41922"
         style="font-style:normal;font-variant:normal;font-weight:normal;font-stretch:normal;font-size:48px;font-family:Kelvinch;-inkscape-font-specification:Kelvinch">Document Markup Language</tspan></text>
  </g>
</svg>
